<svg width="495" height="500" viewBox="0 0 495 500" fill="none" xmlns="http://www.w3.org/2000/svg">
<path opacity="0.7" d="M62.93 167.09C62.93 167.09 35.05 239.09 74.23 311.59C113.41 384.09 194.11 422.39 258.7 455.14C323.29 487.89 390.36 471.94 422.23 418.3C454.1 364.66 410.39 326.37 410.33 249.88C410.27 173.39 421.78 153.14 380.33 88.5199C338.88 23.8999 237.27 9.58995 160.43 57.52C83.59 105.45 62.93 167.09 62.93 167.09Z" fill="white"/>
<path d="M396.55 85.7799L395.99 85.2699C344.42 38.8399 275.93 36.7399 225.99 86.7299C199.99 112.78 153.8 107.8 120.76 117.22C6.88001 149.71 26.58 304.27 82.85 379C133.63 446.42 243.66 461.66 317.58 428.48C382.58 399.33 428.28 334.21 444.58 266.11C446.207 259.29 447.54 252.4 448.58 245.44C457.12 187.46 440.67 125.9 396.55 85.7799Z" fill="#92E3A9"/>
<path opacity="0.7" d="M396.55 85.7799L395.99 85.2699C344.42 38.8399 275.93 36.7399 225.99 86.7299C199.99 112.78 153.8 107.8 120.76 117.22C6.88001 149.71 26.58 304.27 82.85 379C133.63 446.42 243.66 461.66 317.58 428.48C382.58 399.33 428.28 334.21 444.58 266.11C446.207 259.29 447.54 252.4 448.58 245.44C457.12 187.46 440.67 125.9 396.55 85.7799Z" fill="white"/>
<path d="M61.77 151.71C61.77 151.71 64.88 140.91 85.84 140.85C106.8 140.79 119.1 159.78 119.1 159.78C119.1 159.78 127.89 151.51 138.52 157.03C149.15 162.55 149.11 170.68 149.11 170.68L236.41 177.68H46.64" stroke="#263238" stroke-linecap="round" stroke-linejoin="round"/>
<path d="M458.58 223.45C458.58 223.45 455.47 212.64 434.5 212.58C413.53 212.52 401.25 231.52 401.25 231.52C401.25 231.52 392.46 223.25 381.83 228.77C371.2 234.29 371.24 237.42 371.24 237.42H343.94" stroke="#263238" stroke-linecap="round" stroke-linejoin="round"/>
<path d="M29.56 218.2C29.56 218.2 32.67 207.4 53.64 207.34C74.61 207.28 86.89 226.28 86.89 226.28C86.89 226.28 95.68 218.01 106.31 223.53C116.94 229.05 116.9 232.17 116.9 232.17H144.2" stroke="#263238" stroke-linecap="round" stroke-linejoin="round"/>
<path d="M40.88 301.53L70.48 299.53C70.48 299.53 66.26 291.53 75.77 282.02C85.28 272.51 94.92 278.85 94.92 278.85C94.92 278.85 104.24 249.97 131.44 253.36C158.64 256.75 161.5 280.49 161.5 280.49C161.5 280.49 167.31 274.66 179.15 278.49C190.99 282.32 192.78 296.98 189.85 303.15C189.85 303.15 203.33 305.52 204.23 315.93C204.23 315.93 205.06 306.72 217.75 306.44C230.44 306.16 233.6 320.44 233.6 320.44H247.85" stroke="#263238" stroke-linecap="round" stroke-linejoin="round"/>
<path d="M430.05 121.3L388.77 116.24C388.77 116.24 387.56 104.42 374.87 105.01C374.87 105.01 372.07 93.54 358.42 90.07C344.77 86.6 337.65 101 337.65 101C335.247 100.388 332.745 100.266 330.294 100.641C327.842 101.015 325.491 101.879 323.38 103.18C316.84 107.3 319.45 115.18 319.45 115.18L247.45 122.4C247.45 122.4 353.22 124.81 420.45 122.56" stroke="#263238" stroke-linecap="round" stroke-linejoin="round"/>
<path d="M388.82 278.92L317.69 275.72C309.87 252.06 280.29 261.95 280.29 261.95C269.09 237.42 243 249.11 243 249.11C243 249.11 229.7 225.46 203.47 230.41C177.24 235.36 171.85 256.29 171.85 256.29L153.74 256.98" stroke="#263238" stroke-linecap="round" stroke-linejoin="round"/>
<path d="M101.56 260.28L31.47 262.15" stroke="#263238" stroke-linecap="round" stroke-linejoin="round"/>
<path d="M418.89 331.88C415.25 338.42 411.32 344.82 407.12 351.02C405.22 353.84 403.26 356.6 401.26 359.33C397.68 364.163 393.93 368.857 390.01 373.41C388.763 374.877 387.487 376.327 386.18 377.76C383.207 381.053 380.147 384.247 377 387.34L375.24 389.06C358.441 405.421 338.936 418.751 317.59 428.46C278.09 446.2 228.26 450.1 182.68 439.59C180.01 438.97 177.35 438.31 174.68 437.59C172.74 437.057 170.81 436.503 168.89 435.93C166.823 435.31 164.767 434.643 162.72 433.93C161.72 433.6 160.72 433.25 159.72 432.93C155.29 431.37 150.92 429.65 146.65 427.79L145.23 427.16C130.724 420.782 117.182 412.404 105 402.27" stroke="#263238" stroke-miterlimit="10"/>
<path d="M384.77 296.69C384.77 296.69 401.15 302.23 398.77 314.74C398.73 314.74 379.84 318.25 384.77 296.69Z" fill="#263238"/>
<path d="M417.06 308.11C417.06 308.11 429.58 297.84 443.06 308.11C443 308.13 430 321.06 417.06 308.11Z" fill="#263238"/>
<path d="M450.28 274.1C450.28 274.1 446.82 299.1 426.41 286.79C426.41 286.79 437.94 270.71 450.28 274.1Z" fill="#263238"/>
<path d="M426.55 253.72C426.55 253.72 441.65 267.57 425.18 278.63C425.18 278.63 415.5 265.31 426.55 253.72Z" fill="#263238"/>
<path d="M399.56 270C399.56 270 419.05 272.88 414.56 290.48C414.6 290.47 395.4 286.41 399.56 270Z" fill="#263238"/>
<path d="M399.72 334.34C399.72 334.34 396.38 321.52 409.38 305.1C422.38 288.68 429.14 273.79 427.57 261.7" stroke="#263238" stroke-linecap="round" stroke-linejoin="round"/>
<path d="M404.6 276.3C404.6 276.3 414.85 283.7 415.76 296.42" stroke="#263238" stroke-linecap="round" stroke-linejoin="round"/>
<path d="M441.81 282.3C441.81 282.3 432.96 289.61 422.05 285.82" stroke="#263238" stroke-linecap="round" stroke-linejoin="round"/>
<path d="M435.09 308.87C435.09 308.87 415.53 309.51 408.72 305.96" stroke="#263238" stroke-linecap="round" stroke-linejoin="round"/>
<path d="M388.82 303.62C388.82 303.62 394.35 314.22 402.58 316.15" stroke="#263238" stroke-linecap="round" stroke-linejoin="round"/>
<path d="M426.68 273.76C427.724 269.83 428.025 265.74 427.57 261.7" stroke="white" stroke-linecap="round" stroke-linejoin="round"/>
<path d="M404.6 276.3C408.563 279.373 411.686 283.398 413.68 288" stroke="white" stroke-linecap="round" stroke-linejoin="round"/>
<path d="M441.81 282.3C438.66 284.706 434.931 286.237 431 286.74" stroke="white" stroke-linecap="round" stroke-linejoin="round"/>
<path d="M435.09 308.87C430.287 309.012 425.48 308.888 420.69 308.5" stroke="white" stroke-linecap="round" stroke-linejoin="round"/>
<path d="M388.82 303.62C390.683 306.999 393.099 310.042 395.97 312.62" stroke="white" stroke-linecap="round" stroke-linejoin="round"/>
<path d="M132.32 365.88C132.32 365.88 116.96 373.82 121.24 385.82C121.24 385.82 140.44 386.45 132.32 365.88Z" fill="#263238"/>
<path d="M102.12 382C102.12 382 88.19 373.76 76.44 386C76.44 386 91.31 396.77 102.12 382Z" fill="#263238"/>
<path d="M64.16 353.41C64.16 353.41 71.33 377.57 89.67 362.36C89.67 362.36 75.85 348.2 64.16 353.41Z" fill="#263238"/>
<path d="M84.55 329.69C84.55 329.69 71.71 345.69 89.65 354.1C89.65 354.1 97.22 339.48 84.55 329.69Z" fill="#263238"/>
<path d="M113.68 341.7C113.68 341.7 94.85 347.49 101.89 364.22C101.89 364.22 120.26 357.32 113.68 341.7Z" fill="#263238"/>
<path d="M123.38 406.87C123.38 406.87 124.58 392.17 109.26 377.87C93.94 363.57 85.01 349.87 84.74 337.71" stroke="#263238" stroke-linecap="round" stroke-linejoin="round"/>
<path d="M109.64 348.7C109.64 348.7 100.64 357.57 101.64 370.27" stroke="#263238" stroke-linecap="round" stroke-linejoin="round"/>
<path d="M73.76 360.24C73.76 360.24 83.61 366.13 93.83 360.74" stroke="#263238" stroke-linecap="round" stroke-linejoin="round"/>
<path d="M84.4 385.49C84.4 385.49 103.84 383.18 110.04 378.65" stroke="#263238" stroke-linecap="round" stroke-linejoin="round"/>
<path d="M129.36 373.34C129.36 373.34 125.58 384.97 117.73 388.12" stroke="#263238" stroke-linecap="round" stroke-linejoin="round"/>
<path d="M87.44 349.51C85.8183 345.784 84.9028 341.79 84.74 337.73" stroke="white" stroke-linecap="round" stroke-linejoin="round"/>
<path d="M109.64 348.7C106.186 352.342 103.706 356.796 102.43 361.65" stroke="white" stroke-linecap="round" stroke-linejoin="round"/>
<path d="M73.76 360.24C77.225 362.139 81.1296 363.091 85.08 363" stroke="white" stroke-linecap="round" stroke-linejoin="round"/>
<path d="M84.4 385.49C89.1697 384.927 93.9038 384.096 98.58 383" stroke="white" stroke-linecap="round" stroke-linejoin="round"/>
<path d="M129.36 373.34C128.036 376.972 126.105 380.353 123.65 383.34" stroke="white" stroke-linecap="round" stroke-linejoin="round"/>
<path d="M354.91 364C367.08 370.1 372.83 382.18 375.23 389.06L376.99 387.34C380.137 384.24 383.197 381.047 386.17 377.76C387.47 376.333 388.747 374.883 390 373.41C390.58 371.09 391.24 368.64 392 366.11C392.64 363.92 393.35 361.67 394.12 359.39C394.95 356.92 395.85 354.39 396.84 351.93C397.69 349.78 398.6 347.63 399.58 345.52C400.56 343.41 401.43 341.28 402.09 339.42C404.85 331.61 404.67 326.71 403.21 324.22C401.55 321.4 398.26 321.64 395.73 324.22C395.175 324.804 394.673 325.437 394.23 326.11C392.076 329.611 390.28 333.319 388.87 337.18C386.28 343.77 384.39 350.18 384.39 350.18C384.39 350.18 387.34 328.6 386.51 317.06C385.92 308.96 385.06 301.7 383.51 296.55C381.78 290.96 379.18 287.86 375.11 288.87C369.43 290.28 372.17 303.87 373.97 322.25C374.6 328.64 375.11 335.62 375.11 342.87C375.128 347.928 374.851 352.984 374.28 358.01C374.28 358.01 373.97 357.5 373.44 356.58C370.73 351.87 362.13 336.33 358.87 322.8C354.98 306.64 344.17 313.42 347.63 327.89C351.09 342.36 365.35 350.65 370.63 366.37C370.63 366.37 352.39 348.88 346.35 355.53C342.89 359.29 351.28 362.19 354.91 364Z" fill="#92E3A9" stroke="#263238" stroke-linecap="round" stroke-linejoin="round"/>
<path opacity="0.2" d="M354.91 364C367.08 370.1 372.83 382.18 375.23 389.06L376.99 387.34C380.137 384.24 383.197 381.047 386.17 377.76C387.47 376.333 388.747 374.883 390 373.41C390.58 371.09 391.24 368.64 392 366.11C392.64 363.92 393.35 361.67 394.12 359.39C394.95 356.92 395.85 354.39 396.84 351.93C397.69 349.78 398.6 347.63 399.58 345.52C400.56 343.41 401.43 341.28 402.09 339.42C404.85 331.61 404.67 326.71 403.21 324.22C401.55 321.4 398.26 321.64 395.73 324.22C395.175 324.804 394.673 325.437 394.23 326.11C392.076 329.611 390.28 333.319 388.87 337.18C386.28 343.77 384.39 350.18 384.39 350.18C384.39 350.18 387.34 328.6 386.51 317.06C385.92 308.96 385.06 301.7 383.51 296.55C381.78 290.96 379.18 287.86 375.11 288.87C369.43 290.28 372.17 303.87 373.97 322.25C374.6 328.64 375.11 335.62 375.11 342.87C375.128 347.928 374.851 352.984 374.28 358.01C374.28 358.01 373.97 357.5 373.44 356.58C370.73 351.87 362.13 336.33 358.87 322.8C354.98 306.64 344.17 313.42 347.63 327.89C351.09 342.36 365.35 350.65 370.63 366.37C370.63 366.37 352.39 348.88 346.35 355.53C342.89 359.29 351.28 362.19 354.91 364Z" fill="black" fill-opacity="0.7" stroke="#263238" stroke-miterlimit="10"/>
<path d="M368 338.3C370.412 344.193 372.198 350.324 373.33 356.59C375.175 366.628 375.846 376.847 375.33 387.04L376.92 387.35C380.067 384.25 383.127 381.057 386.1 377.77C387.4 376.343 388.677 374.893 389.93 373.42C393.85 368.873 397.6 364.18 401.18 359.34C403.18 356.61 405.18 353.85 407.04 351.03C402.18 353.1 396.92 357.03 394.04 359.41C392.65 360.53 391.8 361.29 391.8 361.29C393.084 357.986 394.763 354.85 396.8 351.95C403.63 341.95 413.12 334.81 416.21 323.65C420.21 309.31 409.63 302.15 405.16 318.17C404.6 320.17 403.92 322.17 403.16 324.24C397.83 338.54 388.49 352.81 388.49 352.81C391.08 344.083 392.979 335.165 394.17 326.14C397.17 304.73 396.58 283.8 390.17 283.69C385.24 283.6 383.5 288.14 383.45 296.58C383.488 301.465 383.782 306.345 384.33 311.2C386.09 328.89 381.07 354.35 381.07 354.35C381.07 354.35 378.24 330.83 373.91 322.28C373.542 321.518 373.078 320.805 372.53 320.16C367.43 314.55 358.73 316.11 368 338.3Z" fill="#92E3A9" stroke="#263238" stroke-linecap="round" stroke-linejoin="round"/>
<path d="M373 337.28C380.9 356.01 380.89 383.12 380.89 383.12C380.89 383.12 392.69 329.47 390.37 306.73" stroke="#263238" stroke-linecap="round" stroke-linejoin="round"/>
<path d="M408.76 327.24C408.76 327.24 396.22 352.54 384.98 362.13" stroke="#263238" stroke-linecap="round" stroke-linejoin="round"/>
<path d="M382.45 375.49C384.25 372.7 387.94 369.33 391.98 366.12C395.1 363.65 398.42 361.27 401.25 359.34" stroke="#263238" stroke-linecap="round" stroke-linejoin="round"/>
<path d="M137.51 419C138.843 420.44 140.4 421.967 142.18 423.58C143.7 424.94 145.18 426.36 146.63 427.8C150.9 429.66 155.27 431.38 159.7 432.94C160.7 433.29 161.7 433.64 162.7 433.94C164.74 434.607 166.797 435.273 168.87 435.94C170.79 436.52 172.72 437.073 174.66 437.6C177.3 438.32 179.96 438.98 182.66 439.6C183.877 433.501 186.584 427.799 190.54 423C193.16 419.9 199.73 413.93 195.13 411.82C186.96 408.08 177.13 431.34 177.13 431.34C175.8 414.81 185.65 401.57 183.13 386.91C180.61 372.25 168.01 370.27 170.8 386.66C173.13 400.38 171.34 418.05 170.7 423.45C170.58 424.5 170.49 425.09 170.49 425.09C167.992 420.701 165.752 416.17 163.78 411.52C160.92 404.86 158.65 398.24 156.71 392.12C151.12 374.5 148.3 360.94 142.52 361.88C138.38 362.56 137.21 366.43 137.82 372.25C138.39 377.61 140.45 384.62 143.1 392.25C146.82 403.01 157.74 421.25 158.1 421.85C157.84 421.54 153.69 416.56 148.88 411.68C146.06 408.691 142.947 405.991 139.59 403.62C138.916 403.179 138.207 402.794 137.47 402.47C134.12 401.1 131.01 402.17 130.59 405.42C130.14 408.29 131.9 412.87 137.51 419Z" fill="#92E3A9" stroke="#263238" stroke-linecap="round" stroke-linejoin="round"/>
<path opacity="0.2" d="M137.51 419C138.843 420.44 140.4 421.967 142.18 423.58C143.7 424.94 145.18 426.36 146.63 427.8C150.9 429.66 155.27 431.38 159.7 432.94C160.7 433.29 161.7 433.64 162.7 433.94C164.74 434.607 166.797 435.273 168.87 435.94C170.79 436.52 172.72 437.073 174.66 437.6C177.3 438.32 179.96 438.98 182.66 439.6C183.877 433.501 186.584 427.799 190.54 423C193.16 419.9 199.73 413.93 195.13 411.82C186.96 408.08 177.13 431.34 177.13 431.34C175.8 414.81 185.65 401.57 183.13 386.91C180.61 372.25 168.01 370.27 170.8 386.66C173.13 400.38 171.34 418.05 170.7 423.45C170.58 424.5 170.49 425.09 170.49 425.09C167.992 420.701 165.752 416.17 163.78 411.52C160.92 404.86 158.65 398.24 156.71 392.12C151.12 374.5 148.3 360.94 142.52 361.88C138.38 362.56 137.21 366.43 137.82 372.25C138.39 377.61 140.45 384.62 143.1 392.25C146.82 403.01 157.74 421.25 158.1 421.85C157.84 421.54 153.69 416.56 148.88 411.68C146.06 408.691 142.947 405.991 139.59 403.62C138.916 403.179 138.207 402.794 137.47 402.47C134.12 401.1 131.01 402.17 130.59 405.42C130.14 408.29 131.9 412.87 137.51 419Z" fill="black" fill-opacity="0.7" stroke="#263238" stroke-miterlimit="10"/>
<path d="M118.28 410C125.04 418.45 135.58 421.51 145.28 427.15L146.7 427.78C150.97 429.64 155.34 431.36 159.77 432.92C160.77 433.27 161.77 433.62 162.77 433.92C164.81 434.587 166.867 435.253 168.94 435.92C170.86 436.5 172.79 437.053 174.73 437.58C173.129 432.94 171.793 428.212 170.73 423.42C169.303 417.211 168.532 410.87 168.43 404.5C168.25 380.44 159.64 382.43 157.16 389.57C156.917 390.383 156.773 391.222 156.73 392.07C156.12 401.49 162.57 423.69 162.73 424.35C162.28 423.7 148.02 402.68 142.73 385.98C141.304 381.303 139.635 376.703 137.73 372.2C134.36 364.46 130.98 360.97 126.48 363C120.58 365.64 128.33 385.09 139.48 403.61C144.127 411.432 149.379 418.879 155.19 425.88C154.76 425.59 140.84 416.28 130.47 405.4C128.98 403.82 127.55 402.22 126.25 400.6C115.86 387.67 109 398.41 118.28 410Z" fill="#92E3A9" stroke="#263238" stroke-linecap="round" stroke-linejoin="round"/>
<path d="M162.74 434C162.55 433.71 162.36 433.42 162.16 433.13C157.96 426.73 153.16 419.23 148.8 411.73C142.94 401.73 137.74 391.73 135.43 384.31" stroke="#263238" stroke-linecap="round" stroke-linejoin="round"/>
<path d="M163.42 405.53C163.42 407.53 163.54 409.53 163.72 411.53C164.634 419.825 166.37 428.008 168.9 435.96" stroke="#263238" stroke-linecap="round" stroke-linejoin="round"/>
<path d="M126.56 410.39C126.56 410.39 148.06 428.71 162.16 433.1" stroke="#263238" stroke-linecap="round" stroke-linejoin="round"/>
<path d="M159.74 432.94C210.91 451.04 271.32 449.24 317.58 428.47C343.8 416.71 366.89 399.09 386.17 377.77L369 360.05H350L341.59 333.13C341.59 333.13 207.78 331.2 195.59 331.93C183.4 332.66 174.27 349.93 174.27 349.93L189.07 373.47L169.47 402.55L159.74 432.94Z" fill="#BFBFBF"/>
<mask id="mask0_1_269" style="mask-type:luminance" maskUnits="userSpaceOnUse" x="159" y="331" width="228" height="115">
<path d="M159.74 432.94C210.91 451.04 271.32 449.24 317.58 428.47C343.8 416.71 366.89 399.09 386.17 377.77L369 360.05H350L341.59 333.13C341.59 333.13 207.78 331.2 195.59 331.93C183.4 332.66 174.27 349.93 174.27 349.93L189.07 373.47L169.47 402.55L159.74 432.94Z" fill="white"/>
</mask>
<g mask="url(#mask0_1_269)">
<path opacity="0.3" d="M209.37 343.62C227.72 346.39 256.94 338.88 256.94 338.88C272.815 343.19 289.302 344.793 305.71 343.62C323.62 342.32 331.8 336.71 335.29 333.04C308.64 332.67 206.19 331.3 195.57 331.93C194.553 331.992 193.547 332.17 192.57 332.46L201.09 335.02C201.09 335.02 191 340.85 209.37 343.62Z" fill="black" fill-opacity="0.7"/>
<path opacity="0.3" d="M350 360.05C350 360.05 317.65 376.38 316.83 375.49C316.01 374.6 295.18 367.79 295.18 367.79L282 371.93L295.22 355.17L330.47 354.1L341.63 333.1L350 360.05Z" fill="black" fill-opacity="0.7"/>
<path opacity="0.3" d="M168.75 404.77L189.05 417.3L229.64 404.09L189.05 373.5L169.45 402.58L168.75 404.77Z" fill="black" fill-opacity="0.7"/>
<path opacity="0.3" d="M197.62 442.51C238.93 449.1 282.36 444.28 317.62 428.51C343.84 416.75 366.93 399.13 386.21 377.81L369 360.05L352.39 396.05H302.86L269.09 425.4L223.19 427.54L197.62 442.51Z" fill="black" fill-opacity="0.7"/>
<path d="M266.44 375.85L244.28 379.29L223.84 370.27L219.62 355.18L191.01 352.26L174.25 349.96" stroke="#263238" stroke-linecap="round" stroke-linejoin="round"/>
<path d="M295.19 355.18L330.44 354.1L341.6 333.13" stroke="#263238" stroke-linecap="round" stroke-linejoin="round"/>
<path d="M302.86 396.07L269.09 425.4L244.81 417.3L247.44 400.37L236.61 400.7" stroke="#263238" stroke-linecap="round" stroke-linejoin="round"/>
<path d="M168.35 404.52L189.05 417.3L191.01 427.54" stroke="#263238" stroke-linecap="round" stroke-linejoin="round"/>
</g>
<path d="M159.74 432.94C210.91 451.04 271.32 449.24 317.58 428.47C343.8 416.71 366.89 399.09 386.17 377.77L369 360.05H350L341.59 333.13C341.59 333.13 207.78 331.2 195.59 331.93C183.4 332.66 174.27 349.93 174.27 349.93L189.07 373.47L169.47 402.55L159.74 432.94Z" stroke="#263238" stroke-miterlimit="10"/>
<path d="M336.59 298.91C339.14 322.12 332.37 333.2 319.5 338.21C305.5 343.65 285.02 342.11 268.71 337.63C265.71 336.79 213.96 318.16 205.78 304.45C199 293.07 198.11 281.91 212.64 281.13C219.57 280.76 281.21 297.33 281.21 297.33L287.01 295.22L336.59 298.91Z" fill="#263238"/>
<path d="M301.7 189C302.208 189.588 302.602 190.267 302.86 191C303.549 193.109 303.946 195.303 304.04 197.52C304.176 199.821 304.176 202.129 304.04 204.43L320.72 203.8C319.03 194.99 324.49 188 324.49 188C324.88 160.31 298.54 185.53 301.7 189Z" fill="white" stroke="#263238" stroke-linecap="round" stroke-linejoin="round"/>
<path d="M319.5 199.35C319.5 199.35 293.65 200.49 287.56 219.35C287.56 219.35 275.93 225.9 279.49 236.18C283.05 246.46 286.21 257.7 286.21 257.7C286.21 257.7 284.11 272.58 284.9 280.23C284.9 280.23 280.9 290.01 282.9 292.1C282.9 292.1 278.48 295.61 278.9 296.58C281.85 303.94 327.07 312.04 338.27 303.83C341.68 301.33 325.05 259.15 326.65 257.02C328.25 254.89 334.96 235.79 334.17 232.62C334.17 232.62 341.68 234.95 341.68 219.35C341.68 203.75 330.74 197.25 319.5 199.35Z" fill="#92E3A9"/>
<mask id="mask1_1_269" style="mask-type:luminance" maskUnits="userSpaceOnUse" x="278" y="198" width="64" height="110">
<path d="M319.5 199.35C319.5 199.35 293.65 200.49 287.56 219.35C287.56 219.35 275.93 225.9 279.49 236.18C283.05 246.46 286.21 257.7 286.21 257.7C286.21 257.7 284.11 272.58 284.9 280.23C284.9 280.23 280.9 290.01 282.9 292.1C282.9 292.1 278.48 295.61 278.9 296.58C281.85 303.94 327.07 312.04 338.27 303.83C341.68 301.33 325.05 259.15 326.65 257.02C328.25 254.89 334.96 235.79 334.17 232.62C334.17 232.62 341.68 234.95 341.68 219.35C341.68 203.75 330.74 197.25 319.5 199.35Z" fill="white"/>
</mask>
<g mask="url(#mask1_1_269)">
<path opacity="0.2" d="M341.6 219.31C341.6 234.91 334.09 232.58 334.09 232.58C334.31 233.46 333.95 235.58 333.29 238.19C332.876 237.956 332.475 237.699 332.09 237.42C321.74 230 324 208.78 300.4 209.7C300.4 209.7 308.98 203.51 316.84 205.7C324.7 207.89 331.33 215.62 333.66 215.51C335.99 215.4 332.35 212.08 332.09 210.37C331.88 209.05 336.8 211.95 340.83 212.67C341.358 214.843 341.616 217.073 341.6 219.31Z" fill="black" fill-opacity="0.7"/>
<path opacity="0.2" d="M311.25 250C311.25 250 308.97 276.88 283.69 283.6C284.3 281.67 284.9 280.19 284.9 280.19C284.11 272.54 286.21 257.66 286.21 257.66C286.21 257.66 283.06 246.43 279.49 236.14C279.43 235.97 279.38 235.8 279.33 235.63C282.786 234.685 285.825 232.607 287.96 229.73C293.44 222.56 311.25 250 311.25 250Z" fill="black" fill-opacity="0.7"/>
<path opacity="0.2" d="M300.4 298.57C293.611 299.419 286.731 299.226 280 298C279.511 297.601 279.121 297.094 278.86 296.52C278.5 295.62 282.26 292.52 282.86 292.09C287.58 294.34 295.58 297.82 300.4 298.57Z" fill="black" fill-opacity="0.7"/>
</g>
<path d="M319.5 199.35C319.5 199.35 293.65 200.49 287.56 219.35C287.56 219.35 275.93 225.9 279.49 236.18C283.05 246.46 286.21 257.7 286.21 257.7C286.21 257.7 284.11 272.58 284.9 280.23C284.9 280.23 280.9 290.01 282.9 292.1C282.9 292.1 278.48 295.61 278.9 296.58C281.85 303.94 327.07 312.04 338.27 303.83C341.68 301.33 325.05 259.15 326.65 257.02C328.25 254.89 334.96 235.79 334.17 232.62C334.17 232.62 341.68 234.95 341.68 219.35C341.68 203.75 330.74 197.25 319.5 199.35Z" stroke="#263238" stroke-linecap="round" stroke-linejoin="round"/>
<path d="M334.09 232.58C328.95 230.87 329.09 213.73 319.5 209.51C309.91 205.29 296.93 209.77 293.29 213.99" stroke="#263238" stroke-linecap="round" stroke-linejoin="round"/>
<path d="M221.08 276.49L205.72 278.59L200.9 282.59L199.24 288.66C199.24 288.66 201.43 288 203.03 284.24C203.03 284.24 204.91 283.08 206.8 281.77C209.626 282.751 212.612 283.185 215.6 283.05C219.04 283.05 219.86 286.71 224.3 285.58C232.2 283.52 221.08 276.49 221.08 276.49Z" fill="white" stroke="#263238" stroke-linecap="round" stroke-linejoin="round"/>
<path d="M306.92 215.91C295.25 211.69 282.79 239.91 270.92 255.4C269.21 257.64 236.11 269.64 225.03 273.59L217.91 275.7C217.91 275.7 222.13 285.46 228.2 288.63L233.74 287.04C233.74 287.04 284.63 276.94 290.55 273.1C293.55 271.1 319.55 244.85 319.5 236.67" fill="#92E3A9"/>
<path d="M306.92 215.91C295.25 211.69 282.79 239.91 270.92 255.4C269.21 257.64 236.11 269.64 225.03 273.59L217.91 275.7C217.91 275.7 222.13 285.46 228.2 288.63L233.74 287.04C233.74 287.04 284.63 276.94 290.55 273.1C293.55 271.1 319.55 244.85 319.5 236.67" stroke="#263238" stroke-linecap="round" stroke-linejoin="round"/>
<path d="M249.28 333.52C252.35 324.21 241.57 320.52 236 321.86C230.43 323.2 222.83 320.68 217 321.56C211.17 322.44 205.11 322.7 206.69 331.93C208.27 341.16 246 343.54 249.28 333.52Z" fill="#757575" stroke="#263238" stroke-linecap="round" stroke-linejoin="round"/>
<path d="M228.85 323.23L228.13 325.23C228.13 325.23 221.25 323.12 217 324.23C212.75 325.34 210.78 325.09 210.26 326.8C209.74 328.51 208.8 331.94 210.26 332.47C211.72 333 223.84 336.47 226.48 336.16L227.53 338.93" stroke="#263238" stroke-linecap="round" stroke-linejoin="round"/>
<path d="M222.56 335.67V337.87" stroke="#263238" stroke-linecap="round" stroke-linejoin="round"/>
<path d="M217.68 334.54L217 336.77" stroke="#263238" stroke-linecap="round" stroke-linejoin="round"/>
<path d="M212.44 333.13L211.44 335.66" stroke="#263238" stroke-linecap="round" stroke-linejoin="round"/>
<path d="M209.48 330.7L207.49 331.08" stroke="#263238" stroke-linecap="round" stroke-linejoin="round"/>
<path d="M210.26 326.79L208.48 325.74" stroke="#263238" stroke-linecap="round" stroke-linejoin="round"/>
<path d="M213.23 325.06L212.44 323.23" stroke="#263238" stroke-linecap="round" stroke-linejoin="round"/>
<path d="M218.3 323.23V322.18" stroke="#263238" stroke-linecap="round" stroke-linejoin="round"/>
<path d="M223.19 324.14L223.84 322.18" stroke="#263238" stroke-linecap="round" stroke-linejoin="round"/>
<path d="M236 323.16L236.79 325.74C236.79 325.74 239.79 323.32 242.85 325.06C245.91 326.8 246.02 329.43 244.85 332.46C243.68 335.49 238 335.66 238 335.66L237.21 337.87" stroke="#263238" stroke-linecap="round" stroke-linejoin="round"/>
<path d="M242.3 336.77L241.53 335.02" stroke="#263238" stroke-linecap="round" stroke-linejoin="round"/>
<path d="M247.44 333.13L244.8 332.46" stroke="#263238" stroke-linecap="round" stroke-linejoin="round"/>
<path d="M247.44 327.11L245.19 327.59" stroke="#263238" stroke-linecap="round" stroke-linejoin="round"/>
<path d="M241.91 323.23L241.53 324.47" stroke="#263238" stroke-linecap="round" stroke-linejoin="round"/>
<path d="M229.64 327.11C229.64 327.11 227.27 330.02 228.85 335.02" stroke="#263238" stroke-linecap="round" stroke-linejoin="round"/>
<path d="M236 327.59C236 327.59 237.45 332.1 236 334.39" stroke="#263238" stroke-linecap="round" stroke-linejoin="round"/>
<path d="M234.78 325.74C233.463 325.927 232.122 325.689 230.95 325.06" stroke="#263238" stroke-linecap="round" stroke-linejoin="round"/>
<path d="M235.31 337.87C233.894 337.406 232.366 337.406 230.95 337.87" stroke="#263238" stroke-linecap="round" stroke-linejoin="round"/>
<path d="M223.84 326.79C223.606 328.895 223.499 331.012 223.52 333.13" stroke="#263238" stroke-linecap="round" stroke-linejoin="round"/>
<path d="M218.3 326.26C217.934 328.129 217.727 330.026 217.68 331.93" stroke="#263238" stroke-linecap="round" stroke-linejoin="round"/>
<path d="M213.23 326.79C213.23 326.79 212.65 329.79 212.44 330.89" stroke="#263238" stroke-linecap="round" stroke-linejoin="round"/>
<path d="M240.73 327.11C240.73 327.11 240.65 329.7 240.73 332.46" stroke="#263238" stroke-linecap="round" stroke-linejoin="round"/>
<g opacity="0.3">
<path d="M298.62 307.24C298.62 307.24 293.62 309.39 294.4 311.4C295.18 313.41 296.46 316.32 296.46 316.32C296.46 316.32 284.03 321.68 278.79 321.37C273.55 321.06 255.36 314.31 255.36 314.31V305.77L249.82 302.34C249.82 302.34 246.56 313.68 246.87 318.16L251.93 322.16L254.04 317.09" stroke="white" stroke-linecap="round" stroke-linejoin="round"/>
<path d="M307 308.54C307 308.54 300.14 318.23 298.63 319.22C297.12 320.21 284.45 323.93 279.9 323.85C275.35 323.77 256.96 317.85 256.96 317.85" stroke="white" stroke-linecap="round" stroke-linejoin="round"/>
<path d="M247.44 303.2C247.44 302.6 236.61 299.44 236.61 299.44C236.655 303.108 236.218 306.766 235.31 310.32L233.8 316.25C233.8 316.25 243.97 321.38 247.44 321.37" stroke="white" stroke-linecap="round" stroke-linejoin="round"/>
<path d="M232.87 305.57C232.87 305.57 207.76 294.89 206.44 294.3C205.299 293.974 204.09 293.974 202.95 294.3" stroke="white" stroke-linecap="round" stroke-linejoin="round"/>
<path d="M235.31 310.32C235.31 310.32 222.55 305.64 217.99 302.32C213.43 299 203.93 296.85 203.93 296.85" stroke="white" stroke-linecap="round" stroke-linejoin="round"/>
<path d="M322 315.26C322 315.26 329.52 315.46 332.29 314.26L334.07 321.36C334.07 321.36 328.93 323.73 326.35 323.15C323.77 322.57 322 318.75 322 318.75" stroke="white" stroke-linecap="round" stroke-linejoin="round"/>
<path d="M320.44 320.41C320.44 320.41 316.29 330.01 311.34 331.93C311.34 331.93 316.48 335.17 324.4 333.13C324.4 333.13 331.24 327.56 332.09 322.18" stroke="white" stroke-linecap="round" stroke-linejoin="round"/>
</g>
<path d="M302.86 191C303.549 193.109 303.946 195.303 304.04 197.52C309.56 194.07 308.47 191 308.47 191H302.86Z" fill="#263238"/>
<path d="M323.63 188.69C344.12 165.44 328.81 152.87 316.54 151.91C289 149.77 298 172.64 296.42 174C293.82 176.23 291.3 177 291.21 178.15C291.08 179.87 293.87 182.04 293.87 182.04L292.87 185.73L293.81 186.11C293.81 186.11 294.1 195.93 296.58 195.93C303.99 195.93 308.4 193.54 309.35 191.27" fill="white"/>
<path d="M323.63 188.69C344.12 165.44 328.81 152.87 316.54 151.91C289 149.77 298 172.64 296.42 174C293.82 176.23 291.3 177 291.21 178.15C291.08 179.87 293.87 182.04 293.87 182.04L292.87 185.73L293.81 186.11C293.81 186.11 294.1 195.93 296.58 195.93C303.99 195.93 308.4 193.54 309.35 191.27" stroke="#263238" stroke-linecap="round" stroke-linejoin="round"/>
<path d="M298.15 165.28C299.199 165.356 300.2 165.748 301.022 166.402C301.845 167.057 302.451 167.945 302.76 168.95" stroke="#263238" stroke-linecap="round" stroke-linejoin="round"/>
<path d="M298.45 173.3C298.37 174.3 298.65 175.11 299.06 175.14C299.47 175.17 299.88 174.4 299.96 173.42C300.04 172.44 299.76 171.62 299.34 171.59C298.92 171.56 298.52 172.32 298.45 173.3Z" fill="#263238"/>
<path d="M293.8 186.11C293.8 186.11 296.08 186.29 296.57 185.34" stroke="#263238" stroke-linecap="round" stroke-linejoin="round"/>
<path d="M305.68 149.71C305.68 149.71 298.8 149.71 294.97 154.71C293.876 156.17 293.22 157.91 293.076 159.728C292.933 161.546 293.309 163.367 294.16 164.98L295.71 161.91C295.71 161.91 298.06 165.84 304.41 165.79L303.41 161.19C303.41 161.19 305.73 166.31 310.1 167.89L309.47 175.98C309.47 175.98 312.54 172.65 315.72 174.62C321.72 178.32 319.72 188.16 319.72 188.16C319.72 188.16 324.96 191.25 329.64 188.95C334.32 186.65 347.45 171.01 336.44 156.38C325.43 141.75 307.38 148.26 305.68 149.71Z" fill="#263238"/>
<path d="M312.36 174.4C312.36 174.4 318.16 169.26 319.96 173.22C321.76 177.18 319.33 181.22 316.49 183.63C313.65 186.04 308.07 186.41 310.49 183.16" fill="white"/>
<path d="M312.36 174.4C312.36 174.4 318.16 169.26 319.96 173.22C321.76 177.18 319.33 181.22 316.49 183.63C313.65 186.04 308.07 186.41 310.49 183.16" stroke="#263238" stroke-linecap="round" stroke-linejoin="round"/>
<path d="M336.26 164.53C336.26 164.53 341.56 150.53 354.77 152.53C363.84 153.91 357.23 157.97 357.23 157.97C357.23 157.97 366.98 159.54 369.32 167.11C370.5 170.92 363.08 167.63 363.08 167.63C363.08 167.63 366.17 170.47 367.08 176.48C367.71 180.48 363.2 180.04 356.29 173.02C356.29 173.02 357.05 175.92 361.36 179.02C365.67 182.12 354.53 183.73 348.77 176.31C348.855 177.163 348.731 178.024 348.409 178.819C348.086 179.613 347.575 180.317 346.92 180.87C344.69 182.63 346.16 175.06 339.32 172.52C332.48 169.98 336.26 164.53 336.26 164.53Z" fill="#263238"/>
<g opacity="0.2">
<path d="M302.86 152.33C302.86 152.33 296.73 154.78 298.15 160.19" stroke="white" stroke-linecap="round" stroke-linejoin="round"/>
<path d="M304.42 153.26C304.42 153.26 303.82 160.38 311.54 163.15" stroke="white" stroke-linecap="round" stroke-linejoin="round"/>
<path d="M309.87 151.77C309.87 151.77 328.79 147.77 336.87 163.15" stroke="white" stroke-linecap="round" stroke-linejoin="round"/>
<path d="M313.69 168.4C313.69 168.4 327.36 173.4 337.69 168.4" stroke="white" stroke-linecap="round" stroke-linejoin="round"/>
<path d="M324 184.12C324 184.12 332.56 180.41 336.88 173.36" stroke="white" stroke-linecap="round" stroke-linejoin="round"/>
<path d="M341.6 163.15C341.6 163.15 350.99 156.71 358.42 164.34" stroke="white" stroke-linecap="round" stroke-linejoin="round"/>
<path d="M343.58 167.11C343.58 167.11 351.51 166.76 352.34 173.36" stroke="white" stroke-linecap="round" stroke-linejoin="round"/>
</g>
<path d="M282.85 292.06C282.85 292.06 299.85 302.34 320.58 299.44" stroke="#263238" stroke-linecap="round" stroke-linejoin="round"/>
<path d="M319.5 245.64C319.5 245.64 314.81 253.72 308.56 254.42" stroke="#263238" stroke-linecap="round" stroke-linejoin="round"/>
<path d="M326.57 257C326.57 257 321.09 263.86 316.84 263.59" stroke="#263238" stroke-linecap="round" stroke-linejoin="round"/>
<path d="M223.19 274.14C224.613 278.361 227.35 282.016 231 284.57" stroke="#263238" stroke-linecap="round" stroke-linejoin="round"/>
<path d="M270.92 255.4C270.92 255.4 278.31 259.25 284.11 254.4" stroke="#263238" stroke-linecap="round" stroke-linejoin="round"/>
</svg>
