<svg width="64" height="64" viewBox="0 0 64 64" fill="none" xmlns="http://www.w3.org/2000/svg">
<g clip-path="url(#clip0_1_57)">
<path d="M29.3333 5.33334C40.1813 5.33334 49.136 13.4293 50.4907 23.9067L56.4907 33.344C56.8853 33.9653 56.8053 34.8907 55.8907 35.2853L50.6667 37.52V45.3333C50.6667 48.28 48.28 50.6667 45.3333 50.6667H40.0027L40 58.6667H16V48.816C16 45.6693 14.8373 42.6907 12.6827 40.0027C9.752 36.3493 8 31.712 8 26.6667C8 14.8853 17.552 5.33334 29.3333 5.33334ZM29.3333 10.6667C20.496 10.6667 13.3333 17.8293 13.3333 26.6667C13.3333 30.36 14.5813 33.848 16.8427 36.6667C19.76 40.304 21.3333 44.4453 21.3333 48.816V53.3333H34.6667L34.672 45.3333H45.3333V34.0053L49.4667 32.2347L45.352 25.768L45.2 24.5893C44.176 16.6693 37.3973 10.6667 29.3333 10.6667ZM27.92 20.7013L29.3333 22.1147L30.7467 20.7013C32.5707 18.8773 35.5253 18.8773 37.3467 20.7013C39.1707 22.5227 39.1707 25.4773 37.3467 27.2987L29.3333 35.3147L21.32 27.2987C19.496 25.4773 19.496 22.5227 21.32 20.7013C23.1413 18.8773 26.096 18.8773 27.92 20.7013Z" fill="white"/>
</g>
<defs>
<clipPath id="clip0_1_57">
<rect width="64" height="64" fill="white"/>
</clipPath>
</defs>
</svg>
