<svg width="1437" height="256" viewBox="0 0 1437 256" fill="none" xmlns="http://www.w3.org/2000/svg">
<path d="M-3 32L21 42.7C45 53 93 75 141 80C189 85 237 75 285 64C333 53 381 43 429 74.7C477 107 525 181 573 186.7C621 192 669 128 717 117.3C765 107 813 149 861 170.7C909 192 957 192 1005 197.3C1053 203 1101 213 1149 186.7C1197 160 1245 96 1293 58.7C1341 21 1389 11 1413 5.3L1437 0V256H1413C1389 256 1341 256 1293 256C1245 256 1197 256 1149 256C1101 256 1053 256 1005 256C957 256 909 256 861 256C813 256 765 256 717 256C669 256 621 256 573 256C525 256 477 256 429 256C381 256 333 256 285 256C237 256 189 256 141 256C93 256 45 256 21 256H-3V32Z" fill="#2AA692"/>
</svg>
